<svg viewBox="0 0 60 60" xmlns="http://www.w3.org/2000/svg"><path d="M40.774 0a3.994 3.994 0 0 1 2.824 1.17L58.829 16.4A4 4 0 0 1 60 19.233v21.534a4 4 0 0 1-1.172 2.831L43.6 58.828A3.989 3.989 0 0 1 40.774 60H19.225a3.989 3.989 0 0 1-2.824-1.171l-15.23-15.23A3.994 3.994 0 0 1 0 40.767V19.233a4 4 0 0 1 1.173-2.832l15.23-15.23a3.994 3.994 0 0 1 2.824-1.17h21.549ZM45 39.951a3.406 3.406 0 0 1 0 4.819l-.22.22a3.42 3.42 0 0 1-4.833 0l-8.764-8.755a1.71 1.71 0 0 0-2.417 0l-8.741 8.746a3.417 3.417 0 0 1-4.836 0l-.194-.193a3.408 3.408 0 0 1 .017-4.842l8.834-8.735a1.7 1.7 0 0 0 0-2.43l-8.831-8.725a3.409 3.409 0 0 1-.018-4.844l.193-.193a3.411 3.411 0 0 1 2.418-1c.944 0 3.255 1.835 3.872 2.455l7.286 7.287a1.708 1.708 0 0 0 2.417 0l8.764-8.748a3.417 3.417 0 0 1 4.831 0l.222.23a3.406 3.406 0 0 1 0 4.818l-8.727 8.737a1.7 1.7 0 0 0 0 2.407Z" fill="#9f4c4c" fill-rule="evenodd"/></svg>