<svg xmlns="http://www.w3.org/2000/svg" viewBox="0 0 128 128"><path d="M64 10.848c-29.355 0-53.152 23.797-53.152 53.152S34.645 117.152 64 117.152 117.152 93.355 117.152 64 93.355 10.848 64 10.848ZM91.533 34.72c2.16-.079 3.794 1.876 2.918 5.388L83.92 89.742c-.735 3.527-2.868 4.371-5.82 2.742L62.055 80.63a8951.683 8951.683 0 0 0-7.713 7.502c-.894.873-1.606 1.605-3.211 1.605-2.08 0-1.726-.787-2.443-2.767l-5.903-18.094-15.426-4.816c-3.426-1.05-3.451-3.404.77-5.098l61.85-23.856a4.14 4.14 0 0 1 1.554-.384zm-9.81 10.556c-.465-.006-1.098.16-1.748.555L45.207 67.768l5.857 17.962 1.16-12.363 29.772-26.861c.817-.725.502-1.218-.273-1.229z"/></svg>